<svg width="1200" height="420" viewBox="0 0 1200 420" fill="none" xmlns="http://www.w3.org/2000/svg">
  <defs>
    <linearGradient id="bg" x1="44" y1="24" x2="1156" y2="396" gradientUnits="userSpaceOnUse">
      <stop stop-color="#07111F"/>
      <stop offset="1" stop-color="#0B172A"/>
    </linearGradient>
    <linearGradient id="panel" x1="0" y1="0" x2="1" y2="1">
      <stop stop-color="#0F1D32"/>
      <stop offset="1" stop-color="#0C182A"/>
    </linearGradient>
    <linearGradient id="accentLine" x1="0" y1="0" x2="1" y2="1">
      <stop stop-color="#2DD4BF"/>
      <stop offset="1" stop-color="#60A5FA"/>
    </linearGradient>
    <filter id="softShadow" x="-20%" y="-20%" width="140%" height="160%">
      <feDropShadow dx="0" dy="14" stdDeviation="18" flood-color="#020817" flood-opacity="0.28"/>
    </filter>
  </defs>

  <rect x="16" y="16" width="1168" height="388" rx="28" fill="url(#bg)"/>
  <rect x="16.5" y="16.5" width="1167" height="387" rx="27.5" stroke="#1E334D"/>

  <g opacity="0.18">
    <path d="M56 88H1144" stroke="#36506E"/>
    <path d="M56 132H1144" stroke="#36506E"/>
    <path d="M56 176H1144" stroke="#36506E"/>
    <path d="M56 220H1144" stroke="#36506E"/>
    <path d="M56 264H1144" stroke="#36506E"/>
    <path d="M56 308H1144" stroke="#36506E"/>
    <path d="M56 352H1144" stroke="#36506E"/>
    <path d="M208 48V372" stroke="#36506E"/>
    <path d="M360 48V372" stroke="#36506E"/>
    <path d="M512 48V372" stroke="#36506E"/>
    <path d="M664 48V372" stroke="#36506E"/>
    <path d="M816 48V372" stroke="#36506E"/>
    <path d="M968 48V372" stroke="#36506E"/>
  </g>

  <g>
    <rect x="56" y="52" width="154" height="30" rx="15" fill="#0D1B2E" stroke="#28415E"/>
    <circle cx="74" cy="67" r="4" fill="#2DD4BF"/>
    <text x="88" y="72" fill="#8FB6D9" font-family="Segoe UI, Arial, sans-serif" font-size="14">SECURITY TOOLCHAIN</text>
  </g>

  <g>
    <text x="56" y="132" fill="#F8FBFF" font-family="Segoe UI, Arial, sans-serif" font-size="64" font-weight="700">CodeScan</text>
    <text x="58" y="168" fill="#A7C1DD" font-family="Segoe UI, Arial, sans-serif" font-size="21">Agent-native security review with rules, structured findings, and MCP tooling.</text>
  </g>

  <g>
    <rect x="56" y="320" width="124" height="34" rx="17" fill="#0F2036" stroke="#28425D"/>
    <text x="118" y="342" fill="#C9DBEE" font-family="Cascadia Code, Consolas, monospace" font-size="14" text-anchor="middle">scan_file</text>
    <rect x="192" y="320" width="140" height="34" rx="17" fill="#0F2036" stroke="#28425D"/>
    <text x="262" y="342" fill="#C9DBEE" font-family="Cascadia Code, Consolas, monospace" font-size="14" text-anchor="middle">scan_git_diff</text>
    <rect x="344" y="320" width="126" height="34" rx="17" fill="#0F2036" stroke="#28425D"/>
    <text x="407" y="342" fill="#C9DBEE" font-family="Cascadia Code, Consolas, monospace" font-size="14" text-anchor="middle">codescan-mcp</text>
  </g>

  <g filter="url(#softShadow)">
    <rect x="520" y="60" width="286" height="286" rx="22" fill="url(#panel)" stroke="#21344C"/>
    <rect x="828" y="60" width="316" height="286" rx="22" fill="url(#panel)" stroke="#21344C"/>
  </g>

  <g>
    <rect x="540" y="82" width="246" height="30" rx="15" fill="#0B1628" stroke="#223650"/>
    <circle cx="560" cy="97" r="4" fill="#F97316"/>
    <circle cx="576" cy="97" r="4" fill="#FACC15"/>
    <circle cx="592" cy="97" r="4" fill="#34D399"/>
    <text x="618" y="102" fill="#7FA2C3" font-family="Cascadia Code, Consolas, monospace" font-size="13">review/session.py</text>

    <text x="548" y="142" fill="#7FA2C3" font-family="Cascadia Code, Consolas, monospace" font-size="13">01</text>
    <text x="582" y="142" fill="#DCE8F7" font-family="Cascadia Code, Consolas, monospace" font-size="13">query = f"SELECT * FROM users WHERE id = {user_id}"</text>
    <text x="548" y="172" fill="#7FA2C3" font-family="Cascadia Code, Consolas, monospace" font-size="13">02</text>
    <text x="582" y="172" fill="#DCE8F7" font-family="Cascadia Code, Consolas, monospace" font-size="13">os.system(command)</text>
    <text x="548" y="202" fill="#7FA2C3" font-family="Cascadia Code, Consolas, monospace" font-size="13">03</text>
    <text x="582" y="202" fill="#DCE8F7" font-family="Cascadia Code, Consolas, monospace" font-size="13">return render_template("profile.html", bio=bio)</text>

    <rect x="576" y="126" width="202" height="22" rx="11" fill="#3F1D1D" opacity="0.92"/>
    <rect x="576" y="156" width="148" height="22" rx="11" fill="#3F1D1D" opacity="0.92"/>
    <rect x="576" y="186" width="190" height="22" rx="11" fill="#3A2A16" opacity="0.92"/>

    <rect x="548" y="242" width="230" height="78" rx="16" fill="#0A1322" stroke="#20344D"/>
    <text x="566" y="270" fill="#86A9C9" font-family="Segoe UI, Arial, sans-serif" font-size="13">SCAN PIPELINE</text>
    <rect x="566" y="284" width="58" height="18" rx="9" fill="#11253C"/>
    <text x="595" y="297" fill="#D6E5F4" font-family="Cascadia Code, Consolas, monospace" font-size="11" text-anchor="middle">rules</text>
    <path d="M629 293H654" stroke="url(#accentLine)" stroke-width="2" stroke-linecap="round"/>
    <rect x="654" y="284" width="44" height="18" rx="9" fill="#11253C"/>
    <text x="676" y="297" fill="#D6E5F4" font-family="Cascadia Code, Consolas, monospace" font-size="11" text-anchor="middle">llm</text>
    <path d="M703 293H728" stroke="url(#accentLine)" stroke-width="2" stroke-linecap="round"/>
    <rect x="728" y="284" width="32" height="18" rx="9" fill="#11253C"/>
    <text x="744" y="297" fill="#D6E5F4" font-family="Cascadia Code, Consolas, monospace" font-size="11" text-anchor="middle">mcp</text>
  </g>

  <g>
    <text x="850" y="96" fill="#88AAC9" font-family="Segoe UI, Arial, sans-serif" font-size="13">STRUCTURED FINDINGS</text>

    <rect x="850" y="114" width="126" height="34" rx="17" fill="#102239" stroke="#28425E"/>
    <text x="872" y="136" fill="#E2ECF7" font-family="Segoe UI, Arial, sans-serif" font-size="14">High</text>
    <text x="944" y="136" fill="#A7C1DD" font-family="Cascadia Code, Consolas, monospace" font-size="13">2 issues</text>

    <rect x="990" y="114" width="126" height="34" rx="17" fill="#102239" stroke="#28425E"/>
    <text x="1012" y="136" fill="#E2ECF7" font-family="Segoe UI, Arial, sans-serif" font-size="14">Medium</text>
    <text x="1090" y="136" fill="#A7C1DD" font-family="Cascadia Code, Consolas, monospace" font-size="13">3 issues</text>

    <rect x="850" y="168" width="272" height="58" rx="16" fill="#311A1A" stroke="#6E2A2A"/>
    <text x="868" y="192" fill="#FECACA" font-family="Segoe UI, Arial, sans-serif" font-size="13">HIGH · SQL injection risk</text>
    <text x="868" y="214" fill="#F8FBFF" font-family="Cascadia Code, Consolas, monospace" font-size="12">review/session.py:1  -> string interpolation in query</text>

    <rect x="850" y="238" width="272" height="58" rx="16" fill="#311A1A" stroke="#6E2A2A"/>
    <text x="868" y="262" fill="#FECACA" font-family="Segoe UI, Arial, sans-serif" font-size="13">HIGH · Command execution risk</text>
    <text x="868" y="284" fill="#F8FBFF" font-family="Cascadia Code, Consolas, monospace" font-size="12">review/session.py:2  -> unsanitized shell invocation</text>

    <rect x="850" y="308" width="272" height="18" rx="9" fill="#0B1628"/>
    <text x="866" y="321" fill="#8CB0D1" font-family="Cascadia Code, Consolas, monospace" font-size="11">transport: stdio   schema: stable   output: json</text>
  </g>
</svg>
